<svg xmlns="http://www.w3.org/2000/svg" style="display:none">
<symbol id="i-home" viewBox="0 0 24 24"><path d="M3 11l9-7 9 7v9a1 1 0 0 1-1 1h-5v-6h-6v6H4a1 1 0 0 1-1-1v-9z" fill="none" stroke="currentColor" stroke-width="1.6" stroke-linejoin="round"/></symbol>
<symbol id="i-bookings" viewBox="0 0 24 24"><rect x="3" y="5" width="18" height="16" rx="2" fill="none" stroke="currentColor" stroke-width="1.6"/><path d="M3 10h18M8 3v4M16 3v4" stroke="currentColor" stroke-width="1.6" stroke-linecap="round"/></symbol>
<symbol id="i-pricing" viewBox="0 0 24 24"><path d="M4 20V6M4 20h16M8 17v-7M12 17v-4M16 17v-9" stroke="currentColor" stroke-width="1.6" stroke-linecap="round"/></symbol>
<symbol id="i-bot" viewBox="0 0 24 24"><rect x="4" y="8" width="16" height="12" rx="3" fill="none" stroke="currentColor" stroke-width="1.6"/><circle cx="9" cy="14" r="1.3" fill="currentColor"/><circle cx="15" cy="14" r="1.3" fill="currentColor"/><path d="M12 4v4M9 20v2M15 20v2" stroke="currentColor" stroke-width="1.6" stroke-linecap="round"/></symbol>
<symbol id="i-more" viewBox="0 0 24 24"><circle cx="6" cy="12" r="1.6" fill="currentColor"/><circle cx="12" cy="12" r="1.6" fill="currentColor"/><circle cx="18" cy="12" r="1.6" fill="currentColor"/></symbol>
<symbol id="i-tax" viewBox="0 0 24 24"><path d="M12 3v2M12 19v2M5.6 5.6l1.4 1.4M17 17l1.4 1.4M3 12h2M19 12h2M5.6 18.4l1.4-1.4M17 7l1.4-1.4" stroke="currentColor" stroke-width="1.4" stroke-linecap="round"/><circle cx="12" cy="12" r="4" fill="none" stroke="currentColor" stroke-width="1.6"/></symbol>
<symbol id="i-bell" viewBox="0 0 24 24"><path d="M6 9a6 6 0 0 1 12 0c0 5 2 6 2 7H4s2-2 2-7zM10 20a2 2 0 0 0 4 0" fill="none" stroke="currentColor" stroke-width="1.6" stroke-linejoin="round" stroke-linecap="round"/></symbol>
<symbol id="i-star" viewBox="0 0 24 24"><path d="M12 3l2.6 5.8 6.4.6-4.8 4.3 1.4 6.3L12 17l-5.6 3 1.4-6.3L3 9.4l6.4-.6L12 3z" fill="currentColor"/></symbol>
<symbol id="i-alert" viewBox="0 0 24 24"><path d="M12 3l10 18H2L12 3z" fill="none" stroke="currentColor" stroke-width="1.6" stroke-linejoin="round"/><path d="M12 10v4M12 17v.5" stroke="currentColor" stroke-width="1.6" stroke-linecap="round"/></symbol>
<symbol id="i-check" viewBox="0 0 24 24"><path d="M4 12l5 5L20 6" stroke="currentColor" stroke-width="1.8" stroke-linecap="round" stroke-linejoin="round" fill="none"/></symbol>
<symbol id="i-trending" viewBox="0 0 24 24"><path d="M3 17l6-6 4 4 8-8M15 7h6v6" stroke="currentColor" stroke-width="1.6" stroke-linecap="round" stroke-linejoin="round" fill="none"/></symbol>
<symbol id="i-chevron" viewBox="0 0 24 24"><path d="M9 6l6 6-6 6" stroke="currentColor" stroke-width="1.8" stroke-linecap="round" stroke-linejoin="round" fill="none"/></symbol>
<symbol id="i-close" viewBox="0 0 24 24"><path d="M6 6l12 12M18 6L6 18" stroke="currentColor" stroke-width="1.8" stroke-linecap="round"/></symbol>
<symbol id="i-arrow-up" viewBox="0 0 24 24"><path d="M12 20V6M6 12l6-6 6 6" stroke="currentColor" stroke-width="1.8" stroke-linecap="round" stroke-linejoin="round" fill="none"/></symbol>
<symbol id="i-arrow-down" viewBox="0 0 24 24"><path d="M12 4v14M6 12l6 6 6-6" stroke="currentColor" stroke-width="1.8" stroke-linecap="round" stroke-linejoin="round" fill="none"/></symbol>
<symbol id="i-sparkle" viewBox="0 0 24 24"><path d="M12 3v6m0 6v6M3 12h6m6 0h6M6 6l3 3m6 6l3 3M6 18l3-3m6-6l3-3" stroke="currentColor" stroke-width="1.4" stroke-linecap="round"/></symbol>
<symbol id="i-settings" viewBox="0 0 24 24"><circle cx="12" cy="12" r="3" fill="none" stroke="currentColor" stroke-width="1.6"/><path d="M12 2v3M12 19v3M4.2 4.2l2.1 2.1M17.7 17.7l2.1 2.1M2 12h3M19 12h3M4.2 19.8l2.1-2.1M17.7 6.3l2.1-2.1" stroke="currentColor" stroke-width="1.6" stroke-linecap="round"/></symbol>
<symbol id="i-logout" viewBox="0 0 24 24"><path d="M14 4h5v16h-5M14 12H4M7 9l-3 3 3 3" stroke="currentColor" stroke-width="1.6" stroke-linecap="round" stroke-linejoin="round" fill="none"/></symbol>
</svg>
